<svg width="32" height="32" viewBox="0 0 32 32" fill="none" xmlns="http://www.w3.org/2000/svg">
<path d="M19.7334 8.5332C20.4278 8.5332 21.0144 8.98066 21.2352 9.59985H26.7648C26.9856 8.98066 27.5723 8.5332 28.2667 8.5332C29.1488 8.5332 29.8667 9.25106 29.8667 10.1332C29.8667 11.0153 29.1488 11.7332 28.2667 11.7332C27.5723 11.7332 26.9856 11.2857 26.7648 10.6665H21.2347C21.0139 11.2857 20.4272 11.7332 19.7328 11.7332C18.8507 11.7332 18.1328 11.0153 18.1328 10.1332C18.1328 9.25106 18.8512 8.5332 19.7334 8.5332ZM28.2667 10.6665C28.5606 10.6665 28.8 10.4276 28.8 10.1332C28.8 9.83878 28.5606 9.59985 28.2667 9.59985C27.9728 9.59985 27.7334 9.83878 27.7334 10.1332C27.7334 10.4276 27.9728 10.6665 28.2667 10.6665ZM19.7334 10.6665C20.0272 10.6665 20.2667 10.4276 20.2667 10.1332C20.2667 9.83878 20.0272 9.59985 19.7334 9.59985C19.4395 9.59985 19.2 9.83878 19.2 10.1332C19.2 10.4276 19.4395 10.6665 19.7334 10.6665Z" fill="#00B2FF"/>
<path d="M15.4669 11.8312V8.53314C15.4669 8.39127 15.5229 8.25581 15.6232 8.15608L17.7565 6.02278C17.8563 5.92251 17.9923 5.86651 18.1336 5.86651H19.8317C20.0525 5.24732 20.6392 4.79987 21.3336 4.79987C22.2157 4.79987 22.9336 5.51772 22.9336 6.39984C22.9336 7.28196 22.2157 7.99981 21.3336 7.99981C20.6392 7.99981 20.0525 7.55235 19.8317 6.93316H18.3544L16.5336 8.75393V11.8312C17.1528 12.052 17.6003 12.6387 17.6003 13.3331C17.6003 14.2152 16.8824 14.933 16.0003 14.933C15.1181 14.933 14.4003 14.2152 14.4003 13.3331C14.4003 12.6387 14.8477 12.052 15.4669 11.8312ZM21.3336 6.93316C21.6275 6.93316 21.8669 6.69423 21.8669 6.39984C21.8669 6.10544 21.6275 5.86651 21.3336 5.86651C21.0397 5.86651 20.8003 6.10544 20.8003 6.39984C20.8003 6.69423 21.0397 6.93316 21.3336 6.93316ZM16.0003 13.8664C16.2941 13.8664 16.5336 13.6275 16.5336 13.3331C16.5336 13.0387 16.2941 12.7997 16.0003 12.7997C15.7064 12.7997 15.4669 13.0387 15.4669 13.3331C15.4669 13.6275 15.7064 13.8664 16.0003 13.8664Z" fill="#00B2FF"/>
<path d="M5.86667 13.8664C6.11307 13.8664 6.34347 13.9267 6.552 14.027L7.46667 13.1123V7.99987C7.46667 7.858 7.52267 7.72254 7.62293 7.62281L12.9605 2.2853C12.8603 2.07677 12.8 1.84637 12.8 1.59997C12.8 0.717855 13.5179 0 14.4 0C15.2821 0 16 0.717855 16 1.59997C16 2.48209 15.2821 3.19995 14.4 3.19995C14.1536 3.19995 13.9232 3.13968 13.7147 3.03942L8.53333 8.22066V13.3331C8.53333 13.475 8.47733 13.6104 8.37707 13.7102L7.30613 14.7811C7.4064 14.9896 7.46667 15.22 7.46667 15.4664C7.46667 16.3485 6.7488 17.0664 5.86667 17.0664C4.98453 17.0664 4.26667 16.3485 4.26667 15.4664C4.26667 14.5843 4.98453 13.8664 5.86667 13.8664ZM14.4 2.1333C14.6939 2.1333 14.9333 1.89437 14.9333 1.59997C14.9333 1.30558 14.6939 1.06665 14.4 1.06665C14.1061 1.06665 13.8667 1.30558 13.8667 1.59997C13.8667 1.89437 14.1061 2.1333 14.4 2.1333ZM5.86667 15.9997C6.16053 15.9997 6.4 15.7608 6.4 15.4664C6.4 15.172 6.16053 14.9331 5.86667 14.9331C5.5728 14.9331 5.33333 15.172 5.33333 15.4664C5.33333 15.7608 5.5728 15.9997 5.86667 15.9997Z" fill="#00B2FF"/>
<path d="M1.06662 7.56467V5.33324C1.06662 5.19138 1.12262 5.05592 1.22288 4.95618L4.95622 1.22291C5.05595 1.12265 5.19195 1.06665 5.33328 1.06665H8.09808C8.31888 0.447459 8.90555 0 9.59995 0C10.4821 0 11.2 0.717855 11.2 1.59997C11.2 2.48209 10.4821 3.19995 9.59995 3.19995C8.90555 3.19995 8.31888 2.75249 8.09808 2.1333H5.55409L2.13329 5.55404V7.56467C2.75249 7.78547 3.19995 8.37213 3.19995 9.06652C3.19995 9.94863 2.48209 10.6665 1.59995 10.6665C0.717818 10.6665 -4.81606e-05 9.94863 -4.81606e-05 9.06652C-4.81606e-05 8.37213 0.447418 7.78547 1.06662 7.56467ZM9.59995 2.1333C9.89382 2.1333 10.1333 1.89437 10.1333 1.59997C10.1333 1.30558 9.89382 1.06665 9.59995 1.06665C9.30608 1.06665 9.06662 1.30558 9.06662 1.59997C9.06662 1.89437 9.30608 2.1333 9.59995 2.1333ZM1.59995 9.59984C1.89382 9.59984 2.13329 9.36091 2.13329 9.06652C2.13329 8.77212 1.89382 8.53319 1.59995 8.53319C1.30609 8.53319 1.06662 8.77212 1.06662 9.06652C1.06662 9.36091 1.30609 9.59984 1.59995 9.59984Z" fill="#00B2FF"/>
<path d="M8.53275 28.8982V21.2349C7.91409 21.0141 7.46662 20.4274 7.46662 19.733C7.46662 18.8509 8.18449 18.1331 9.06662 18.1331C9.76102 18.1331 10.3477 18.5805 10.5685 19.1997H16.0981C16.3189 18.5805 16.9056 18.1331 17.6 18.1331C18.2944 18.1331 18.881 18.5805 19.1018 19.1997H22.1792L24.1605 17.2184C24.0602 17.0099 24 16.7795 24 16.5331C24 15.651 24.7178 14.9331 25.6 14.9331C26.4821 14.9331 27.2 15.651 27.2 16.5331C27.2 17.4152 26.4821 18.1331 25.6 18.1331C25.3536 18.1331 25.1232 18.0728 24.9146 17.9725L22.777 20.1101C22.6773 20.2104 22.5413 20.2664 22.4 20.2664H19.1018C18.881 20.8855 18.2944 21.333 17.6 21.333C16.9056 21.333 16.3189 20.8855 16.0981 20.2664H10.568C10.4069 20.7181 10.0512 21.0738 9.59942 21.2349V28.8982C10.2186 29.119 10.6661 29.7057 10.6661 30.4C10.6661 31.2822 9.94822 32 9.06609 32C8.18395 32 7.46609 31.2822 7.46609 30.4C7.46609 29.7057 7.91355 29.119 8.53275 28.8982ZM25.6 17.0664C25.8938 17.0664 26.1333 16.8275 26.1333 16.5331C26.1333 16.2387 25.8938 15.9998 25.6 15.9998C25.3061 15.9998 25.0666 16.2387 25.0666 16.5331C25.0666 16.8275 25.3061 17.0664 25.6 17.0664ZM17.6 20.2664C17.8938 20.2664 18.1333 20.0274 18.1333 19.733C18.1333 19.4386 17.8938 19.1997 17.6 19.1997C17.3061 19.1997 17.0666 19.4386 17.0666 19.733C17.0666 20.0274 17.3061 20.2664 17.6 20.2664ZM9.06662 30.9328C9.36049 30.9328 9.59995 30.6939 9.59995 30.3995C9.59995 30.1051 9.36049 29.8662 9.06662 29.8662C8.77275 29.8662 8.53329 30.1051 8.53329 30.3995C8.53329 30.6939 8.77275 30.9328 9.06662 30.9328ZM9.06662 20.2664C9.36049 20.2664 9.59995 20.0274 9.59995 19.733C9.59995 19.4386 9.36049 19.1997 9.06662 19.1997C8.77275 19.1997 8.53329 19.4386 8.53329 19.733C8.53329 20.0274 8.77275 20.2664 9.06662 20.2664Z" fill="#00B2FF"/>
<path d="M11.2001 10.7646V9.06652C11.2001 8.92465 11.2561 8.78919 11.3563 8.68946L17.7606 2.2853C17.6603 2.07677 17.6001 1.84637 17.6001 1.59997C17.6001 0.717855 18.3179 0 19.2001 0C19.8945 0 20.4811 0.447459 20.7019 1.06665H22.9334C23.2278 1.06665 23.4667 1.30505 23.4667 1.59997V2.97915L25.4481 4.96045C25.6566 4.86019 25.887 4.79992 26.1334 4.79992C27.0155 4.79992 27.7334 5.51778 27.7334 6.39989C27.7334 7.28201 27.0155 7.99987 26.1334 7.99987C25.2513 7.99987 24.5334 7.28201 24.5334 6.39989C24.5334 6.1535 24.5937 5.9231 24.6939 5.71457L22.5563 3.57701C22.4561 3.47728 22.4001 3.34181 22.4001 3.19995V2.1333H20.7019C20.4811 2.75249 19.8945 3.19995 19.2001 3.19995C18.9537 3.19995 18.7233 3.13968 18.5147 3.03942L12.2667 9.28731V10.7646C12.8859 10.9854 13.3334 11.5721 13.3334 12.2665C13.3334 13.1486 12.6155 13.8664 11.7334 13.8664C10.8513 13.8664 10.1334 13.1486 10.1334 12.2665C10.1334 11.5721 10.5809 10.9854 11.2001 10.7646ZM26.1334 6.93322C26.4273 6.93322 26.6667 6.69429 26.6667 6.39989C26.6667 6.1055 26.4273 5.86657 26.1334 5.86657C25.8395 5.86657 25.6001 6.1055 25.6001 6.39989C25.6001 6.69429 25.8395 6.93322 26.1334 6.93322ZM19.2001 2.1333C19.4939 2.1333 19.7334 1.89437 19.7334 1.59997C19.7334 1.30558 19.4939 1.06665 19.2001 1.06665C18.9062 1.06665 18.6667 1.30558 18.6667 1.59997C18.6667 1.89437 18.9062 2.1333 19.2001 2.1333ZM11.7334 12.7998C12.0273 12.7998 12.2667 12.5609 12.2667 12.2665C12.2667 11.9721 12.0273 11.7331 11.7334 11.7331C11.4395 11.7331 11.2001 11.9721 11.2001 12.2665C11.2001 12.5609 11.4395 12.7998 11.7334 12.7998Z" fill="#00B2FF"/>
<path d="M12.8 14.9331C13.4944 14.9331 14.0811 15.3805 14.3019 15.9997H20.5792L23.6229 12.956C23.7227 12.8558 23.8587 12.7998 24 12.7998H29.6459L30.9333 11.5123V7.15401L26.8187 3.03942C26.6101 3.13968 26.3797 3.19995 26.1333 3.19995C25.2512 3.19995 24.5333 2.48209 24.5333 1.59997C24.5333 0.717855 25.2512 0 26.1333 0C27.0155 0 27.7333 0.717855 27.7333 1.59997C27.7333 1.84637 27.6731 2.07677 27.5728 2.2853L31.8437 6.55616C31.944 6.65589 32 6.79135 32 6.93322V11.7331C32 11.875 31.944 12.0105 31.8437 12.1102L30.2437 13.7102C30.144 13.8104 30.008 13.8664 29.8667 13.8664H24.2208L21.1771 16.9101C21.0773 17.0104 20.9413 17.0664 20.8 17.0664H14.3019C14.0811 17.6856 13.4944 18.133 12.8 18.133C11.9179 18.133 11.2 17.4152 11.2 16.5331C11.2 15.6509 11.9179 14.9331 12.8 14.9331ZM26.1333 1.06665C25.8395 1.06665 25.6 1.30558 25.6 1.59997C25.6 1.89437 25.8395 2.1333 26.1333 2.1333C26.4272 2.1333 26.6667 1.89437 26.6667 1.59997C26.6667 1.30558 26.4272 1.06665 26.1333 1.06665ZM12.8 17.0664C13.0939 17.0664 13.3333 16.8275 13.3333 16.5331C13.3333 16.2387 13.0939 15.9997 12.8 15.9997C12.5061 15.9997 12.2667 16.2387 12.2667 16.5331C12.2667 16.8275 12.5061 17.0664 12.8 17.0664Z" fill="#00B2FF"/>
<path d="M1.59989 12.7997C1.84629 12.7997 2.07669 12.86 2.28522 12.9603L4.26655 10.979V7.90168C3.64735 7.68088 3.19989 7.09423 3.19989 6.39984C3.19989 5.51772 3.91775 4.79987 4.79989 4.79987C5.68202 4.79987 6.39989 5.51772 6.39989 6.39984C6.39989 7.09423 5.95242 7.68088 5.33322 7.90168V11.1998C5.33322 11.3416 5.27722 11.4771 5.17695 11.5768L3.03935 13.7144C3.13962 13.9229 3.19989 14.1533 3.19989 14.3997C3.19989 15.0941 2.75242 15.6808 2.13322 15.9015V16.3122L6.24362 20.4225C6.34389 20.5223 6.39989 20.6577 6.39989 20.7996V21.4311C7.01909 21.6519 7.46655 22.2385 7.46655 22.9329C7.46655 23.6273 7.01909 24.2139 6.39989 24.4347V25.6982C7.01909 25.919 7.46655 26.5056 7.46655 27.2C7.46655 28.0821 6.74869 28.8 5.86655 28.8C4.98442 28.8 4.26655 28.0821 4.26655 27.2C4.26655 26.5056 4.71402 25.919 5.33322 25.6982V24.4347C4.71402 24.2139 4.26655 23.6273 4.26655 22.9329C4.26655 22.2385 4.71402 21.6519 5.33322 21.4311V21.0204L1.22282 16.9101C1.12255 16.8103 1.06655 16.6749 1.06655 16.533V15.9015C0.447354 15.6808 -0.000112653 15.0941 -0.000112653 14.3997C-0.000112653 13.5176 0.717754 12.7997 1.59989 12.7997ZM4.79989 6.93316C5.09375 6.93316 5.33322 6.69423 5.33322 6.39984C5.33322 6.10544 5.09375 5.86651 4.79989 5.86651C4.50602 5.86651 4.26655 6.10544 4.26655 6.39984C4.26655 6.69423 4.50602 6.93316 4.79989 6.93316ZM5.86655 27.7328C6.16042 27.7328 6.39989 27.4939 6.39989 27.1995C6.39989 26.9051 6.16042 26.6662 5.86655 26.6662C5.57269 26.6662 5.33322 26.9051 5.33322 27.1995C5.33322 27.4939 5.57269 27.7328 5.86655 27.7328ZM5.86655 23.4662C6.16042 23.4662 6.39989 23.2273 6.39989 22.9329C6.39989 22.6385 6.16042 22.3996 5.86655 22.3996C5.57269 22.3996 5.33322 22.6385 5.33322 22.9329C5.33322 23.2273 5.57269 23.4662 5.86655 23.4662ZM1.59989 14.933C1.89375 14.933 2.13322 14.6941 2.13322 14.3997C2.13322 14.1053 1.89375 13.8664 1.59989 13.8664C1.30602 13.8664 1.06655 14.1053 1.06655 14.3997C1.06655 14.6941 1.30602 14.933 1.59989 14.933Z" fill="#00B2FF"/>
</svg>
